<?xml version="1.0" standalone="no"?>
<!DOCTYPE svg PUBLIC "-//W3C//DTD SVG 20010904//EN"
 "http://www.w3.org/TR/2001/REC-SVG-20010904/DTD/svg10.dtd">
<svg version="1.0" xmlns="http://www.w3.org/2000/svg"
 width="500.000000pt" height="500.000000pt" viewBox="0 0 500.000000 500.000000"
 preserveAspectRatio="xMidYMid meet">

<g transform="translate(0.000000,500.000000) scale(0.100000,-0.100000)"
fill="#000000" stroke="none">
<path d="M2846 2675 c-4 -14 -14 -29 -24 -32 -23 -9 -41 -34 -35 -50 4 -9 0
-11 -13 -6 -14 5 -16 3 -11 -13 7 -18 6 -18 -9 1 -16 19 -16 19 -8 -5 4 -14 7
-31 7 -37 0 -7 3 -13 7 -13 4 0 7 -6 8 -12 0 -7 8 -42 17 -78 12 -46 15 -88
11 -145 -7 -105 -12 -145 -22 -153 -4 -4 -4 1 -1 11 4 11 3 16 -4 12 -6 -4 -8
-14 -4 -22 3 -9 -3 -25 -12 -36 -17 -19 -17 -20 2 -9 45 23 158 156 187 219
28 59 30 71 26 146 -5 85 -31 156 -64 175 -9 5 -14 11 -12 13 1 3 -7 17 -18
32 l-22 27 -6 -25z"/>
<path d="M2220 2308 c-12 -22 -12 -22 6 -6 10 10 15 20 12 24 -4 3 -12 -5 -18
-18z"/>
<path d="M2232 2272 c-7 -9 -11 -12 -8 -6 11 23 -36 6 -48 -17 -33 -65 -20
-93 113 -239 74 -81 132 -156 155 -198 19 -37 36 -59 36 -50 0 36 -54 163
-122 284 -39 70 -81 153 -93 185 -18 51 -22 56 -33 41z"/>
</g>
</svg>
